<svg xmlns="http://www.w3.org/2000/svg" viewBox="0 0 400 520" width="400" height="520">
  <!-- Tallos -->
  <g stroke="#4a7c3f" stroke-width="4" fill="none" stroke-linecap="round">
    <path d="M200 490 Q195 420 185 370"/>
    <path d="M200 490 Q210 430 220 380"/>
    <path d="M200 490 Q185 410 165 350"/>
    <path d="M200 490 Q218 415 235 360"/>
    <path d="M200 490 Q195 400 192 340"/>
    <path d="M200 490 Q208 405 210 345"/>
    <!-- Hojas -->
    <path d="M192 420 Q170 400 165 380 Q178 382 192 420" fill="#5a9e4a" stroke="none"/>
    <path d="M208 430 Q232 408 238 388 Q224 392 208 430" fill="#5a9e4a" stroke="none"/>
    <path d="M188 390 Q162 368 160 348 Q175 352 188 390" fill="#6ab555" stroke="none"/>
    <path d="M212 395 Q238 372 240 352 Q226 358 212 395" fill="#6ab555" stroke="none"/>
  </g>

  <!-- Lazo -->
  <path d="M175 460 Q185 445 200 450 Q215 445 225 460 Q215 475 200 470 Q185 475 175 460Z" fill="#f5c518" stroke="#d4a017" stroke-width="1.5"/>
  <ellipse cx="200" cy="460" rx="8" ry="10" fill="#f0b800"/>
  <!-- Ala izquierda del lazo -->
  <path d="M192 455 Q160 440 155 425 Q170 430 192 455Z" fill="#f5c518" stroke="#d4a017" stroke-width="1"/>
  <!-- Ala derecha del lazo -->
  <path d="M208 455 Q240 440 245 425 Q230 430 208 455Z" fill="#f5c518" stroke="#d4a017" stroke-width="1"/>

  <!-- Girasol central grande -->
  <g transform="translate(200,240)">
    <!-- Pétalos -->
    <g fill="#FFD700" stroke="#e6a800" stroke-width="1">
      <ellipse cx="0" cy="-52" rx="12" ry="22" transform="rotate(0)"/>
      <ellipse cx="0" cy="-52" rx="12" ry="22" transform="rotate(30)"/>
      <ellipse cx="0" cy="-52" rx="12" ry="22" transform="rotate(60)"/>
      <ellipse cx="0" cy="-52" rx="12" ry="22" transform="rotate(90)"/>
      <ellipse cx="0" cy="-52" rx="12" ry="22" transform="rotate(120)"/>
      <ellipse cx="0" cy="-52" rx="12" ry="22" transform="rotate(150)"/>
      <ellipse cx="0" cy="-52" rx="12" ry="22" transform="rotate(180)"/>
      <ellipse cx="0" cy="-52" rx="12" ry="22" transform="rotate(210)"/>
      <ellipse cx="0" cy="-52" rx="12" ry="22" transform="rotate(240)"/>
      <ellipse cx="0" cy="-52" rx="12" ry="22" transform="rotate(270)"/>
      <ellipse cx="0" cy="-52" rx="12" ry="22" transform="rotate(300)"/>
      <ellipse cx="0" cy="-52" rx="12" ry="22" transform="rotate(330)"/>
    </g>
    <!-- Centro -->
    <circle cx="0" cy="0" r="30" fill="#7B3F00"/>
    <circle cx="0" cy="0" r="24" fill="#5C2D00"/>
    <!-- Semillas patrón -->
    <g fill="#3a1a00" opacity="0.6">
      <circle cx="0" cy="-15" r="3"/>
      <circle cx="10" cy="-10" r="3"/>
      <circle cx="15" cy="0" r="3"/>
      <circle cx="10" cy="10" r="3"/>
      <circle cx="0" cy="15" r="3"/>
      <circle cx="-10" cy="10" r="3"/>
      <circle cx="-15" cy="0" r="3"/>
      <circle cx="-10" cy="-10" r="3"/>
      <circle cx="6" cy="-5" r="2.5"/>
      <circle cx="-6" cy="-5" r="2.5"/>
      <circle cx="0" cy="5" r="2.5"/>
    </g>
  </g>

  <!-- Rosa amarilla izquierda -->
  <g transform="translate(148,270)">
    <g fill="#FFEC6E" stroke="#d4b800" stroke-width="0.8" opacity="0.95">
      <ellipse cx="0" cy="-28" rx="9" ry="16" transform="rotate(0)"/>
      <ellipse cx="0" cy="-28" rx="9" ry="16" transform="rotate(45)"/>
      <ellipse cx="0" cy="-28" rx="9" ry="16" transform="rotate(90)"/>
      <ellipse cx="0" cy="-28" rx="9" ry="16" transform="rotate(135)"/>
      <ellipse cx="0" cy="-28" rx="9" ry="16" transform="rotate(180)"/>
      <ellipse cx="0" cy="-28" rx="9" ry="16" transform="rotate(225)"/>
      <ellipse cx="0" cy="-28" rx="9" ry="16" transform="rotate(270)"/>
      <ellipse cx="0" cy="-28" rx="9" ry="16" transform="rotate(315)"/>
    </g>
    <circle cx="0" cy="0" r="14" fill="#FFD700" stroke="#d4a000" stroke-width="0.8"/>
    <circle cx="0" cy="0" r="8" fill="#FFC200"/>
  </g>

  <!-- Rosa amarilla derecha -->
  <g transform="translate(255,265)">
    <g fill="#FFE040" stroke="#c9a800" stroke-width="0.8" opacity="0.95">
      <ellipse cx="0" cy="-26" rx="8" ry="15" transform="rotate(0)"/>
      <ellipse cx="0" cy="-26" rx="8" ry="15" transform="rotate(45)"/>
      <ellipse cx="0" cy="-26" rx="8" ry="15" transform="rotate(90)"/>
      <ellipse cx="0" cy="-26" rx="8" ry="15" transform="rotate(135)"/>
      <ellipse cx="0" cy="-26" rx="8" ry="15" transform="rotate(180)"/>
      <ellipse cx="0" cy="-26" rx="8" ry="15" transform="rotate(225)"/>
      <ellipse cx="0" cy="-26" rx="8" ry="15" transform="rotate(270)"/>
      <ellipse cx="0" cy="-26" rx="8" ry="15" transform="rotate(315)"/>
    </g>
    <circle cx="0" cy="0" r="13" fill="#FFD700" stroke="#d4a000" stroke-width="0.8"/>
    <circle cx="0" cy="0" r="7" fill="#FFC200"/>
  </g>

  <!-- Margaritas pequeñas -->
  <g transform="translate(170,305)">
    <g fill="#FFFDE0" stroke="#e0d000" stroke-width="0.5">
      <ellipse cx="0" cy="-16" rx="5" ry="10" transform="rotate(0)"/>
      <ellipse cx="0" cy="-16" rx="5" ry="10" transform="rotate(36)"/>
      <ellipse cx="0" cy="-16" rx="5" ry="10" transform="rotate(72)"/>
      <ellipse cx="0" cy="-16" rx="5" ry="10" transform="rotate(108)"/>
      <ellipse cx="0" cy="-16" rx="5" ry="10" transform="rotate(144)"/>
      <ellipse cx="0" cy="-16" rx="5" ry="10" transform="rotate(180)"/>
      <ellipse cx="0" cy="-16" rx="5" ry="10" transform="rotate(216)"/>
      <ellipse cx="0" cy="-16" rx="5" ry="10" transform="rotate(252)"/>
      <ellipse cx="0" cy="-16" rx="5" ry="10" transform="rotate(288)"/>
      <ellipse cx="0" cy="-16" rx="5" ry="10" transform="rotate(324)"/>
    </g>
    <circle cx="0" cy="0" r="9" fill="#FFD700"/>
  </g>

  <g transform="translate(232,308)">
    <g fill="#FFFDE0" stroke="#e0d000" stroke-width="0.5">
      <ellipse cx="0" cy="-14" rx="5" ry="9" transform="rotate(0)"/>
      <ellipse cx="0" cy="-14" rx="5" ry="9" transform="rotate(36)"/>
      <ellipse cx="0" cy="-14" rx="5" ry="9" transform="rotate(72)"/>
      <ellipse cx="0" cy="-14" rx="5" ry="9" transform="rotate(108)"/>
      <ellipse cx="0" cy="-14" rx="5" ry="9" transform="rotate(144)"/>
      <ellipse cx="0" cy="-14" rx="5" ry="9" transform="rotate(180)"/>
      <ellipse cx="0" cy="-14" rx="5" ry="9" transform="rotate(216)"/>
      <ellipse cx="0" cy="-14" rx="5" ry="9" transform="rotate(252)"/>
      <ellipse cx="0" cy="-14" rx="5" ry="9" transform="rotate(288)"/>
      <ellipse cx="0" cy="-14" rx="5" ry="9" transform="rotate(324)"/>
    </g>
    <circle cx="0" cy="0" r="8" fill="#FFD700"/>
  </g>

  <!-- Ramitas de mimosa -->
  <g fill="#FFD700">
    <circle cx="128" cy="280" r="5"/>
    <circle cx="136" cy="270" r="4"/>
    <circle cx="120" cy="272" r="4"/>
    <circle cx="130" cy="262" r="3.5"/>
    <circle cx="140" cy="278" r="3"/>
    <circle cx="118" cy="285" r="3"/>
    <circle cx="275" cy="275" r="5"/>
    <circle cx="283" cy="265" r="4"/>
    <circle cx="268" cy="268" r="4"/>
    <circle cx="278" cy="257" r="3.5"/>
    <circle cx="288" cy="273" r="3"/>
    <circle cx="266" cy="280" r="3"/>
  </g>

  <!-- Brillos / destellos decorativos -->
  <g fill="#FFF176" opacity="0.7">
    <polygon points="155,200 158,210 168,210 160,216 163,226 155,220 147,226 150,216 142,210 152,210" />
    <polygon points="248,195 250,202 257,202 251,207 254,214 248,209 242,214 244,207 238,202 246,202" transform="scale(0.7) translate(106,86)"/>
  </g>
</svg>
